<svg
 xmlns="http://www.w3.org/2000/svg"
 xmlns:xlink="http://www.w3.org/1999/xlink"
 width="116px" height="116px" viewBox="0 0 116 116">
<path fill-rule="evenodd"  fill="rgb(47, 255, 160)"
 d="M58.000,116.000 C26.036,116.000 0.000,89.964 0.000,58.000 C0.000,26.036 26.036,-0.000 58.000,-0.000 C89.964,-0.000 116.000,26.036 116.000,58.000 C116.000,89.964 89.964,116.000 58.000,116.000 ZM58.000,12.889 C33.124,12.889 12.889,33.124 12.889,58.000 C12.889,82.876 33.124,103.111 58.000,103.111 C82.876,103.111 103.111,82.876 103.111,58.000 C103.111,33.124 82.876,12.889 58.000,12.889 ZM27.711,59.289 L36.733,50.267 L51.556,64.960 L79.267,37.378 L88.289,46.400 L51.556,83.262 L27.711,59.289 Z"/>
</svg>
