<svg 
 xmlns="http://www.w3.org/2000/svg"
 xmlns:xlink="http://www.w3.org/1999/xlink"
 width="38px" height="36px">
<path fill-rule="evenodd"  fill="rgb(255, 255, 255)"
 d="M35.964,20.000 C35.372,20.000 34.891,19.521 34.891,18.930 C34.891,9.653 27.355,2.133 18.059,2.133 C17.467,2.133 16.987,1.653 16.987,1.062 C16.987,0.471 17.467,-0.008 18.059,-0.008 C28.540,-0.008 37.036,8.471 37.036,18.930 C37.036,19.521 36.556,20.000 35.964,20.000 ZM19.439,27.759 L21.115,25.392 C21.401,24.987 21.929,24.832 22.390,25.016 C24.572,25.890 26.901,26.341 29.252,26.347 C29.843,26.348 30.322,26.827 30.322,27.417 L30.322,34.906 C30.322,35.497 29.842,35.976 29.249,35.976 C13.635,35.976 0.977,23.345 0.977,7.763 C0.977,7.172 1.457,6.692 2.049,6.692 L9.554,6.692 C10.146,6.692 10.626,7.171 10.627,7.761 C10.630,10.033 11.053,12.285 11.875,14.404 C12.056,14.870 11.889,15.398 11.475,15.678 L9.083,17.287 C11.251,21.844 14.902,25.535 19.439,27.759 ZM18.059,8.926 C23.596,8.926 28.084,13.405 28.084,18.930 C28.084,19.521 27.604,20.000 27.011,20.000 C26.419,20.000 25.939,19.521 25.939,18.930 C25.939,14.587 22.411,11.066 18.059,11.066 C17.467,11.066 16.987,10.587 16.987,9.996 C16.987,9.405 17.467,8.926 18.059,8.926 ZM18.059,6.600 C17.467,6.600 16.987,6.120 16.987,5.529 C16.987,4.938 17.467,4.459 18.059,4.459 C26.068,4.459 32.560,10.938 32.560,18.930 C32.560,19.521 32.080,20.000 31.488,20.000 C30.895,20.000 30.415,19.521 30.415,18.930 C30.415,12.120 24.883,6.600 18.059,6.600 Z"/>
</svg>